<svg id="_Layer_" data-name="&lt;Layer&gt;" xmlns="http://www.w3.org/2000/svg" viewBox="0 0 2536.03 1404.83"><defs><style>.cls-3{fill:#ffb27d}.cls-4{fill:#bc3f3f}.cls-5{fill:#4a75cb}.cls-6{fill:#233862}.cls-8{fill:#2c3a64}.cls-9{fill:#2b478b}.cls-10{fill:#739af0}.cls-11{fill:#ee9849}.cls-12{fill:#bbd4ff}.cls-14{fill:#b56f40}.cls-16{fill:#74acbe}.cls-17{fill:#578e9b}.cls-18{fill:#e58638}.cls-20{fill:#163560}.cls-22{fill:#ef9e67}.cls-23{fill:#a53d38}.cls-24{fill:#c45446}.cls-25{fill:#912f2f}.cls-26{fill:#d9935c}.cls-27{fill:#f1a34f}.cls-28,.cls-33{fill:#d86713}.cls-29{fill:#cb7d45}.cls-31{fill:#466aa5}.cls-32{fill:#d37129}.cls-33{opacity:.4}.cls-34{fill:#ffb93e}.cls-35{fill:#ffa412}.cls-38{fill:#f9ddbf}</style></defs><path d="M155.52 1427.52S-156.06 1093 102.83 730.8c229.7-321.36 497.51-299.39 694-169 83.68 55.54 325 6.84 530.32-320.15C1607.2-204.26 2578 66.2 2401 752.27c-85.66 332 260.68 344.08 84.21 676z" transform="translate(0 -23.39)" fill="#fcecdb"/><path d="M2407.7 1423.78H2309c-5.29-4.48 3.66-14.67 13-15.36 4.06-.31 9.2.54 15.07 1.78 1.35-18 9.11-99.15 38.35-95.89 32.88 3.65 0 35.72-9.29 54.7-6.89 14.07-14.15 34.24-17.47 43.76 2.67.57 5.43 1.14 8.26 1.66 4.35-13.38 20.57-58.38 41.19-55.76 24.2 3.07 14.47 21.11-2.69 31.83-12.58 7.87-28 19.07-35.39 24.47a104 104 0 0019.31 1.55c16.9-.4 25.16 4.58 28.36 7.26zm-2151.95-3.51c-3.92-6.16-15.72-22.15-31.43-20-17.13 2.31 18.91 13.6 29.94 20.08a18.36 18.36 0 01-6.1-.72c-7.38-2.63-20 2.41-24 4.18h70.22a11.14 11.14 0 00-5-6.42c-1.16-.7-3.47-.8-6.47-.57 4.18-4.92 7.08-20.65-4.54-16.6-8.5 3-8.47 12.56-7.64 18.24-1.8.29-3.64.57-5.45.83-3.49-17.81-15.86-70-40.92-71.42-25.41-1.41 21.55 54.15 37.18 71.92-2.07.21-4 .39-5.79.48z" transform="translate(0 -23.39)" fill="#82b378"/><path class="cls-3" d="M2043.22 1278.86l-7.63 32.12-10.14 42.59h-31.65l-1.89-40.8-1.46-31.47 52.77-2.44z"/><path class="cls-4" d="M2143.54 603.18s25.05-26.81 41.34-5.79 34.34 35.21 59.33 51.37-22.09 142.87-53.39 140.24-159.05-102.47-47.28-185.82z" transform="translate(0 -23.39)"/><path class="cls-5" d="M2018.81 590.43c6.25-4.67 63.83-24.44 120-5S2095.29 659 2095.29 659l-32.29 1.41z" transform="translate(0 -23.39)"/><path class="cls-6" d="M1981.28 1423.75s0-15.5 2.21-20.65 10.3-26.14 10.3-26.14h31.66s5.89 19.15 6.26 25.41 0 21.38 0 21.38zm201.01 0s0-15.5-2.21-20.65-10.3-26.14-10.3-26.14h-31.66s-5.89 19.15-6.26 25.41 0 21.38 0 21.38z" transform="translate(0 -23.39)"/><path class="cls-3" d="M2055.46 553.82s-1.12 34.52-5.54 50l-35 75.36 131.61-31.28-31.39-43.37s-9.47-46.27-4.5-63.39-55.18 12.68-55.18 12.68z" transform="translate(0 -23.39)"/><path d="M2055.27 558.59s10.4 25 30 24.5 24.06-22.72 24.06-22.72z" transform="translate(0 -23.39)" fill="#ed985f"/><path class="cls-8" d="M2043.57 538.3s-6.34-31.6-10.75-41.17-8.1-52.27 40.86-54.48c0 0 18.77 2.21 29.08-4 0 0 0 6.26-2.58 8.46a32.54 32.54 0 0130.19 10.68c13.25 14.73-8.83 66.27-7.73 78.41z" transform="translate(0 -23.39)"/><path class="cls-3" d="M2083 573.41c-14.21-.25-40.35-19.17-40.35-42.59v-36.55c0-8.55 6-15.55 13.25-15.55h54.19c7.29 0 13.26 7 13.26 15.55v34.48c.03 24.56-24.03 44.95-40.35 44.66z" transform="translate(0 -23.39)"/><path class="cls-8" d="M2042.68 513.79s.08-22 17.47-25.34 56.32 10.7 61.85-5.31-75.25-15.74-79.32-5.52 0 36.17 0 36.17z" transform="translate(0 -23.39)"/><path class="cls-9" d="M2103.33 894.37c8.71-27.12 8.54 112.26-26.44 269-5.34 23.92-17.29 81.62-25.87 137.46h-71.66c-1-45.09-5.82-108-8.86-155.19C1961 997.9 1985.25 887 1985.25 887z" transform="translate(0 -23.39)"/><path class="cls-9" d="M2195.28 1145.68c-.79 45.19-10 105.21-10.79 149.21h-72.7c-4.89-31.94-12.65-64.83-18.22-91.36-4-18.84-6.83-34.47-6.79-44.29.09-19.19-12.06-74.53-19.28-123.33v-.2c-.28-1.87-.55-3.75-.81-5.6-9.68-68.6-6.27-135.74-6.27-135.74l122.67-7.66s14.3 138.46 12.19 258.97z" transform="translate(0 -23.39)"/><path class="cls-6" d="M1975.53 943.84s27.6 33.44 102.58 28.61 110.75-17.88 110.75-17.88z" transform="translate(0 -23.39)"/><path class="cls-10" d="M2188.86 954.57c-24.49 3.34-191.12 12-213.33-10.73s36.26-332.78 36.26-332.78 6.62-1.92 17.8-4c5.69-1.07 12.57-2.19 20.35-3.12.09 2.41 2 39 32.36 54.07 0 0 36.45-14.61 32.88-53.48 0-.46-.09-.9-.15-1.33 4.86.52 9.78 1.19 14.73 2.05a207.47 207.47 0 0130.16 7.47s53.43 338.53 28.94 341.85z" transform="translate(0 -23.39)"/><path class="cls-10" d="M1976.94 794.51c-1 1.28 5.65 10.82 15 23.09 19.28 25.2 50.12 61.88 50.12 61.88a125.93 125.93 0 01-2.15 20.45c-42.36-20-71-38.74-90-53.78-26.69-21.15-34.35-35-34.35-35 42.81-181.06 97.72-199.91 97.72-199.91l17.92 109.1s-51.26 70.24-54.26 74.17z" transform="translate(0 -23.39)"/><path class="cls-11" d="M2129.76 605.23l-11 33.57-14.76 21.61-21.12 11.46-19.88-11.46-33.41-53.41c5.69-1.07 12.57-2.19 20.35-3.12.09 2.41 2 39 32.36 54.07 0 0 36.45-14.61 32.88-53.48 0-.46-.09-.9-.15-1.33 4.86.56 9.78 1.23 14.73 2.09z" transform="translate(0 -23.39)"/><path class="cls-3" d="M2042.09 879.48v1c-.09 2.29-.22 4.44-.39 6.38a34.78 34.78 0 01-3.52 4.15 37.38 37.38 0 01-6.2 5c-1.07-.51-2.14-1-3.19-1.56-36.29-18-61.53-34.68-78.8-48.35 11-3.38 26.31-11.09 42-28.56 19.25 25.26 50.1 61.94 50.1 61.94z" transform="translate(0 -23.39)"/><path class="cls-10" d="M2252.47 804.47s-7.39 14-33.68 35.68c-18.69 15.39-47 34.66-88.94 55.48a126.18 126.18 0 01-2.54-20.4s30.13-37.26 48.92-62.82c9.14-12.45 15.6-22.11 14.59-23.38-2.39-3-34.54-45.3-48.89-64.16l-6.81-9 18.16-107.27s52.93 15.67 99.19 195.87z" transform="translate(0 -23.39)"/><path class="cls-3" d="M2218.79 840.15c-17.06 14-42.09 31.3-78.22 50.05l-2.72 1.39a50.37 50.37 0 01-9.12-18.12c.6-.75 1.38-1.74 2.34-2.92 8.66-10.79 30.4-38.08 45.16-58.15 16.04 17.18 31.54 24.6 42.56 27.75zM2115 603.18a291.1 291.1 0 00-65.09.74v-.13s60.26-37.26 65.09-.61z" transform="translate(0 -23.39)"/><path class="cls-12" d="M2054.61 685.16h-1.24l-.91-58.07h3.12l-.97 58.07z"/><path class="cls-11" d="M2053.24 707.05c-1.12 1.69-3.65 7.31-2 7.9s4.63.63 5.42-.16-1.29-10.95-3.42-7.74z" transform="translate(0 -23.39)"/><path class="cls-12" d="M2111.63 685.16h-1.23l-.91-58.07h3.12l-.98 58.07z"/><path class="cls-11" d="M2110.27 707.05c-1.12 1.69-3.66 7.31-2 7.9s4.62.63 5.41-.16-1.28-10.95-3.41-7.74z" transform="translate(0 -23.39)"/><path class="cls-5" d="M2063 660.41l-51.22-49.35s-11.53-8.18 6.7-20.42 44.52 69.77 44.52 69.77zm41 0l51.22-49.35s11.53-8.18-6.69-20.42-44.53 69.77-44.53 69.77z" transform="translate(0 -23.39)"/><path d="M2168.28 900.67c-10 .85-18.29-1.65-24.72-7.39a32.12 32.12 0 01-3-3.08c-5.06-5.92-7.9-13.37-9.5-19.65a66.33 66.33 0 01-2-12.93v-1.45h-82.72v1.55c.33 8.89-1.11 16.52-4.29 22.8a32.56 32.56 0 01-6 8.41 35.18 35.18 0 01-7.29 5.58c-11.07 6.41-23.39 6.16-23.55 6.16h-1.53v35h166.22v-35zM2190.82 789s-46.11-60.51-9.61-78.12c14.49-7 34.88 76 23.95 83.84s-28.93 17.65-28.93 17.65zm-208.58-9.95s16-76 2-68.14-34.88 76-24 83.84 28.93 17.65 28.93 17.65z" transform="translate(0 -23.39)" fill="#678fe5"/><path class="cls-4" d="M2184.35 788.85c-21.06-26.14-28.92-68.59-27.85-112.38a514 514 0 015.61-63.62l17.27 13.46c-.07.24-9.91 18.24-10.67 50.24-.7 29.27-2.08 51.55 14.46 102.5z" transform="translate(0 -23.39)"/><path class="cls-6" d="M2024.48 1317h-37.1c-3.29.37-8.43-4.44-8.43-11.31 0 0-.07-16.48-1.16-19.41-4.78-12.84 2.32-13.54 9.2-13.54h67.69c6.87 0-3.66 21.25-3.66 28.12l2.44 9c0 6.89-22.11 7.14-28.98 7.14zm11.11 17.37l-10.14 42.63h-31.65l-1.89-40.8c4.72 1.69 20.6 6.12 43.68-1.83z" transform="translate(0 -23.39)"/><path class="cls-3" d="M2120.41 1278.86l7.63 31.63 10.14 41.96h31.66l1.88-40.19 1.46-31-52.77-2.4z"/><path class="cls-6" d="M2139.15 1317h37.1c3.29.37 8.43-4.44 8.43-11.31 0 0 .08-16.48 1.16-19.41 4.78-12.84-2.32-13.54-9.19-13.54H2109c-6.87 0 3.66 21.25 3.66 28.12l-2.44 9c-.05 6.89 22.06 7.14 28.93 7.14zm-11.15 17.37l10.14 42.59h31.65l1.89-40.8c-4.68 1.73-20.56 6.16-43.68-1.79z" transform="translate(0 -23.39)"/><path class="cls-8" d="M553.83 473.22c-2.49-2.71-8.06-5.78-15.4-8.29 12.89-5.79 23.85-12.62 16.27-16.8-3.28-1.8-7.19-1.55-11.32-.05 6.35-6.42 9.4-11.94 3.22-13.39-9.4-2.2-19.19 9.91-26 21.08 4.43-9.58 6.71-19.07-1.55-19.21-9.52-.16-11.38 12.47-11.21 23.4h-2.37c-2.68-12.08-7.89-27.11-16.76-23.1-4.47 2-4.31 6.36-2 11.37-4.19-3.22-8.34-4.33-11.64-.92-5 5.2 1.15 11.36 9.32 16.52a50.43 50.43 0 00-16.08 9.35c-27.72 24.21 2.5 79 2.5 79l79.15-2c24.81-39.43 12.85-67.18 3.87-76.96z" transform="translate(0 -23.39)"/><path class="cls-9" d="M473.11 850.58l-47.27 6c-31.09 3.92-59.18-14-62.44-39.82l-18-142.65c-3.25-25.82 10.35-46.17 41.61-47.45 18.51-.76 49.42-4.84 82.66-15.9 29.48-9.81 32.78 17.32 36 43.14l18 142.66c3.33 25.78-19.48 50.11-50.56 54.02z" transform="translate(0 -23.39)"/><path class="cls-6" d="M410.6 1428.08s0-15.2 2.16-20.25 10.11-25.64 10.11-25.64h31.06s5.77 18.78 6.13 24.91 0 21 0 21zm197.16 0s0-15.2-2.17-20.25-10.11-25.64-10.11-25.64h-31.05s-5.78 18.78-6.14 24.91 0 21 0 21z" transform="translate(0 -23.39)"/><path class="cls-14" d="M483.35 574.81s-1.09 33.86-5.42 49l-34.29 23.92 129.08 19.32-30.78-42.53s-9.3-45.39-4.42-62.18-54.17 12.47-54.17 12.47z" transform="translate(0 -23.39)"/><path d="M483.17 579.49s10.2 24.57 29.43 24 23.6-22.28 23.6-22.28z" transform="translate(0 -23.39)" fill="#99592e"/><path class="cls-14" d="M510.4 594c-13.93-.25-39.58-18.8-39.58-41.77v-35.82c0-8.39 5.85-15.25 13-15.25H537c7.15 0 13 6.86 13 15.25v33.82c0 24.09-23.62 44.08-39.6 43.77z" transform="translate(0 -23.39)"/><path class="cls-11" d="M414.49 901.61s5.43 165.9-2.69 260.56.06 226.4.06 226.4 26 14.33 54.14 0c0 0 30.89-182.88 30.69-226.4-.2-46.35 33.62-253.33 33.62-253.33z" transform="translate(0 -23.39)"/><path class="cls-11" d="M606.64 1388.57s-26 14.33-54.14 0c0 0-30.89-182.88-30.69-226.4.09-19.58-5.89-67.81-12.84-117-9.5-67.28-20.78-136.34-20.78-136.34l120.31-7.52s-9.92 166.19-1.8 260.85-.06 226.41-.06 226.41z" transform="translate(0 -23.39)"/><path class="cls-16" d="M585.82 632.56v.07a342 342 0 00-43.88-8.09c-12 15.91-20.59 19.6-31.54 23.93-17.62-2.43-32.47-24.14-32.47-24.64-25.59 2.62-40.07 8-40.07 8-9.74 4.08-22.52 80.16-24.52 122.41-.24 5.31-.33 10.08-.21 14.11 1 36.24 2.5 71.47-2.17 110.49-6.14 51.27 4.26 50.36 4.26 50.36s14 2.74 33.51 5.33c17.66 2.36 39.83 4.6 60.24 4.6 46.8 0 98.09-9.93 98.09-9.93 14.76.18-4.14-91.87-6.9-147.26-.64-12.86-1.24-24.6-1.79-35.33 17.73 15.27 69.91 43.11 71.1 46.67 0 0-11.39 20.78-14.85 31.86-13.28 42.54-36.13 70.66-36.13 70.66 3.11 11.8 2.24 17 2.24 17 36.14-28.39 59.44-52.55 74.31-71.07 20.91-26 25.2-41 25.2-41C639.77 637 585.82 632.56 585.82 632.56z" transform="translate(0 -23.39)"/><path class="cls-17" d="M448.73 934.54c-19.52-2.59-33.51-5.33-33.51-5.33s-10.4.91-4.26-50.36c4.67-39 3.21-74.25 2.17-110.49-.12-4 0-8.8.21-14.11 3 4.79 36.31 58.61 45.28 98.6 6.54 29.15-3.31 63.53-9.89 81.69z" transform="translate(0 -23.39)"/><path class="cls-18" d="M521.81 1162.17c.09-19.58-5.89-67.81-12.84-117 7.21-29.38 24.76-57.65 24.76-57.65 22.2 62.3-11.92 174.65-11.92 174.65z" transform="translate(0 -23.39)"/><path class="cls-14" d="M618.49 895.81s-19.5-18-27.44-7.94-9.39 26-3.25 24.92 18.78-6.86 20.58-4 9.9 8.41 12.35 4-2.24-16.98-2.24-16.98z" transform="translate(0 -23.39)"/><path class="cls-14" d="M618.49 895.81c3.11 11.8 2.24 17 2.24 17 36.13-28.39 59.43-52.55 74.31-71.07-11.22-.84-21.58-3.34-40.42-16.62-15.55 47.48-36.13 70.69-36.13 70.69z" transform="translate(0 -23.39)"/><path class="cls-17" d="M665 789.62c-2.89-2.4-49.23-27.92-66.78-43.17 0 0 17.51-13.12 28.35 6S665 789.62 665 789.62zm55.24 11.16s-4.29 14.94-25.2 41c-24.2-.35 25.2-41 25.2-41z" transform="translate(0 -23.39)"/><path class="cls-8" d="M470.82 530.94s9.67-29.51 41.36-24.91 34.43 11.37 37.82 19.23 9.87-28.71 9.87-28.71l-37.37-11.1s-45.23 5.14-48.48 12.73l-3.25 7.58z" transform="translate(0 -23.39)"/><path class="cls-9" d="M413.65 845.43l.54-25.16C450.05 793 464.64 760.77 466 705c1-42.32-13.17-76.83-13.27-77.17 0 0 6.34-1.52 8.5-1.9 2.33-.4 9.46-1.21 9.46-1.21.44 1.47 9.88 35.88 8.85 80.24-1.37 59.42-27.06 110.98-65.89 140.47z" transform="translate(0 -23.39)"/><path class="cls-16" d="M513.06 838.15C501 840 438.89 854.37 394.66 860c-24.93 3.15-44.19 3.5-45.68-2.78-4.12-17.42 9.88-128.4 32.13-173.07s63.47-54.32 63.47-54.32l11.72 70.73-59.62 118.69 14.52.26 99.63 1.77z" transform="translate(0 -23.39)"/><rect class="cls-6" x="516.94" y="770.63" width="32.3" height="50.45" rx="4.94"/><rect class="cls-9" x="516.94" y="774.69" width="32.3" height="50.45" rx="4.94"/><path class="cls-14" d="M499.18 825.18s32.78-22.59 43.53-14.75 11.6 26.54-33 28.08z" transform="translate(0 -23.39)"/><path class="cls-14" d="M513.06 838.15C501 840 438.89 854.37 394.66 860c3.88-18.87 10-31.71 16.54-40.44l99.63 1.77z" transform="translate(0 -23.39)"/><path class="cls-8" d="M545.13 534.17a9.67 9.67 0 00-7.6-3.23h-15.95c-3 0-5.15.88-6.3 2.6a5.86 5.86 0 00-.9 2.64 14.86 14.86 0 00-7.09.13 6 6 0 00-.91-2.77c-1.15-1.72-3.27-2.6-6.3-2.6h-16a9.67 9.67 0 00-7.59 3.23 8.18 8.18 0 00-1.49 7c1.82 9 12.2 10.17 17.39 10.17 1.6 0 2.71-.11 2.91-.13 4.86 0 8.28-2.78 10.76-8.72a15.41 15.41 0 001.21-4.9 13.74 13.74 0 017-.14 15.5 15.5 0 001.22 5c2.48 5.94 5.9 8.71 10.76 8.72.2 0 1.31.13 2.91.13 5.19 0 15.57-1.15 17.39-10.17a8.18 8.18 0 00-1.42-6.96zm-40 7.94c-2.3 5.5-5.42 8.07-9.81 8.07h-.07a31.13 31.13 0 01-8.85-.41c-5.92-1.21-9.4-4.16-10.33-8.79a7.15 7.15 0 011.27-6.15 8.64 8.64 0 016.78-2.84h16c2.66 0 4.49.72 5.42 2.13a5 5 0 01.76 2.48 14.6 14.6 0 00-1.41.52.63.63 0 00-.31.83.63.63 0 00.84.31s.33-.14.85-.32a15.16 15.16 0 01-1.14 4.17zm40.46-1.11c-.93 4.63-4.41 7.58-10.33 8.79a31.13 31.13 0 01-8.85.41h-.07c-4.39 0-7.51-2.57-9.81-8.07a15.43 15.43 0 01-1.11-4.28 8.27 8.27 0 01.91.42.63.63 0 10.59-1.11 10.41 10.41 0 00-1.51-.65 5 5 0 01.74-2.37c.94-1.41 2.77-2.13 5.43-2.13h15.95a8.65 8.65 0 016.79 2.84 7.22 7.22 0 011.27 6.15z" transform="translate(0 -23.39)"/><path d="M497.65 570.85s17.53-1.91 25.69 0c0 0-4.34 7.12-11.46 7.12s-12.49-2.61-14.23-7.12z" transform="translate(0 -23.39)" fill="#fff0e6"/><path class="cls-20" d="M1302.61 515.73c-8.54-2.81-17.83-1.43-24.18.24 1.31-2 4.44-3.32 4.44-3.32-4.1.21-12.2 6-12.2 6-59.76-10.19-52 73.2-47 91.94s-23.88 73-43.79 99.52c-55.88 74.33 33.47 151.74 33.47 151.74 72.43 60.83 39.51-57.13 39.51-57.13-4.48-15 49.93-110.18 81.94-141.84 6.32-15 4.8-39 4.67-40.92 2.18 18.83 1.11 29.86-.54 36.28 25.41-35.1-13.66-135.06-36.32-142.51z" transform="translate(0 -23.39)"/><path class="cls-4" d="M1451.31 789.79c0 8.06-4 18.38-9.84 29-14.41 26.49-39.6 54.89-39.6 54.89l-14.6-20.78s8.87-22 14.76-40.19c3.54-10.91 6-20.43 4.8-22.93-3.19-6.68-66.41-81.46-66.41-81.46l-17.18-57.86s42.06 2.23 60 28.44 68.07 89.17 68.07 110.89z" transform="translate(0 -23.39)"/><path class="cls-3" d="M1441.47 818.8c-14.41 26.49-39.6 54.89-39.6 54.89l-14.6-20.78s8.87-22 14.76-40.19c7.08 4.2 19.34 8.19 39.44 6.08z" transform="translate(0 -23.39)"/><path class="cls-3" d="M1266.73 1287.88l15.13 63.72 22.66-.13.83-63.59h-38.62zm190.61 2.72l43.05 61 16.78-21.54-25.91-47.85-33.92 8.39z"/><path class="cls-3" d="M1326.26 669.15c.19.09-18.18 9.62-32 5.85-13-3.55-21.48-20.39-21.3-20.43 5.5-1.09 7.09-8.65 7-41.14l2.49.49 41.82 8.28s-1 13.16-1 25.56c-.03 10.41.6 20.24 2.99 21.39z" transform="translate(0 -23.39)"/><path d="M1259.18 538.4s15.88-25.61 45.39-10.3c0 0-15.29.43-45.39 10.3z" transform="translate(0 -23.39)" fill="#5fabb7"/><path class="cls-22" d="M1324.25 622.2s-1 13.16-1 25.56c-23.4-.66-35.77-22-40.84-33.84z" transform="translate(0 -23.39)"/><path class="cls-20" d="M1273.82 615.39s-15.85-16.58-22-32.24c-4.39-11.18-7.15-55.35 37.29-57.86a59.77 59.77 0 0126.19 4.29c10.66 4.44 27 15.39 19.37 55.95l-1.38 13.47z" transform="translate(0 -23.39)"/><path class="cls-23" d="M1513.13 1339.51s-11.11 1.92-20.24 2.62c-2 .15-4 .24-5.63.24-4.4 0-12.31-1.65-17.63-2.89l-.4-.09c-2.33-.55-4.11-1-4.77-1.18l-.28-.07s-55.43-61.71-86.52-160.62c-.72-2.3-1.49-4.63-2.29-7-17-49.61-52.29-111.88-70.88-168.25q-4.44-13.45-8-25.42-1.15-3.84-2.22-7.56c-13.7-47.59-17.66-78.84-21.32-112.23l111.76 28.43s46.93 203.43 128.42 454.02z" transform="translate(0 -23.39)"/><path class="cls-3" d="M1331.57 628.82s-54.1 11.83-61-22-18.45-55 15.8-64 43.6 2.54 48.63 13.27 10.46 68.77-3.43 72.73z" transform="translate(0 -23.39)"/><path class="cls-20" d="M1311 537s-6.86 42.66-28.48 53.12-32.75 6.34-32.75 6.34 14.69-17.42 13.43-42.41c-.03.02 32.8-33.65 47.8-17.05z" transform="translate(0 -23.39)"/><path class="cls-20" d="M1307.94 541s12.88 6.62 17.32 14.68 9.23 25.54 14.28 23.9c0 0 5.76-29.22-9.9-41.93-16.64-13.5-21.7 3.35-21.7 3.35z" transform="translate(0 -23.39)"/><path class="cls-3" d="M1281.1 1371.43a61.34 61.34 0 01-2.88 26.12s-3.71 16.9 12.93 17.22 20.73-1.26 18.84-11.62-5.47-28.29-5.47-28.29z" transform="translate(0 -23.39)"/><path class="cls-24" d="M1278.22 1397.55s-3.7 17.75-1.81 26.23c0 0 5.63 2 17.72 2 11.47 0 18.2-2 18.2-2s-.42-19.28-3.48-26.66c0 0-11.79 17.71-30.63.43z" transform="translate(0 -23.39)"/><path class="cls-3" d="M1557.27 1404.84s-30.68-34.06-40.1-51.39l-22.82 11.69 51 47.9 11.94-1.57z" transform="translate(0 -23.39)"/><path class="cls-24" d="M1576.76 1424.8s-33 0-38.62-.63-10.2-8.79-16.33-21c-2.5-5-8.13-7.77-13.89-9.29l.11 29.94H1499l-8-31.72c-5.44-10-.44-19 3.39-26.92 4.45 0 16.41 3 39.08 28.57 7.45 8.39 15.67 11.38 23.84 11.13a2.79 2.79 0 00.34.18c18.8 8.44 19.11 19.74 19.11 19.74z" transform="translate(0 -23.39)"/><path class="cls-25" d="M1492.89 1342.13c-2 .15-4 .24-5.63.24-4.4 0-12.31-1.65-17.63-2.89l-.4-.09-4.77-1.18-.28-.07s-55.43-61.71-86.52-160.62c-.72-2.3-1.49-4.63-2.29-7-17-49.61-52.29-111.88-70.88-168.25q-4.44-13.45-8-25.42-1.15-3.84-2.22-7.56l19.76-15s59.35 96.09 77.72 186.52c15.25 74.98 80.79 172.19 101.14 201.32z" transform="translate(0 -23.39)"/><path class="cls-23" d="M1316.11 1149.26c.34 44-1.89 145.07-7.61 186.94 0 0-5.43 4.8-18.9 4.86-13.8 0-20-5-20-5-14.37-72.77-24.59-133-32-184.88-6.1-42.58-11.53-79.09-15.7-110.52-3.7-27.84-6.41-51.71-7.71-72.28-.17-2.8-.33-5.53-.45-8.2-.17-3.52-.29-6.95-.36-10.27s-.08-6.6-.05-9.76h.48l27.76-2.71 87.73-8.55c-1.47 76.97-13.38 194.81-13.19 220.37z" transform="translate(0 -23.39)"/><path class="cls-25" d="M1289.6 1341.06a34.23 34.23 0 01-20-5c-14.37-72.77-24.59-133-32-184.88-6.1-42.58-11.53-79.09-15.7-110.52-3.7-27.84-6.41-51.71-7.71-72.28-.16-10.14-.26-19.85-.38-28.27s-.26-15.77-.5-20.8l28.26 18.09 29.74 19s-42.18 38.37-31.82 110.92 35.68 263.46 50.11 273.74z" transform="translate(0 -23.39)"/><path class="cls-4" d="M1400.15 948.49c-33.65 8.75-190.69 26-192.05-13.32-.33-9.59 0-21.18.76-33.72 2.34-38.85 8.72-86.87 11.78-113.28 1.4-12.11-3.26-66.35.31-95.91a67.7 67.7 0 012.17-11.29c6.79-22.3 37.26-28.35 52.91-28.89l47.21-1.61s48.75 54.46 55.54 71.2 9 74 14.27 101.74 23.47 120.83 7.1 125.08z" transform="translate(0 -23.39)"/><path class="cls-23" d="M1307.4 815.57s-26.24 80.61-98.54 85.88c2.34-38.85 8.72-86.87 11.78-113.28 1.4-12.11-3.26-66.35.31-95.91.94.2 1.8.73 2.78.92 79.61 15.37 90.91 105.58 83.67 122.39z" transform="translate(0 -23.39)"/><path class="cls-9" transform="rotate(6.08 1542.882 781.756)" d="M1280.58 729.4h84.32v128.33h-84.32z"/><path class="cls-20" d="M1287.61 701.9l-5.38-.43-12.63 127.51 4.42.53 13.59-127.61z"/><path class="cls-3" d="M1216.91 781.79s59.16 18.08 115.7 26.16c0 0 18.65 8.07 9.89 10.28-2.24.56-115.46 25.25-132.25 9.23z" transform="translate(0 -23.39)"/><path class="cls-4" d="M1276 652.08s-31.1.17-44.38 15.33c-24.25 27.65-29.05 145.28-21.4 160.05 3.29 6.35 28.53 6.87 39.18-23.89 5.6-15.96 29.66-122.48 26.6-151.49z" transform="translate(0 -23.39)"/><path class="cls-3" d="M1327 807.12s7-.65 8.27-2.87c2.64-4.44 6.81-4.38 10.29-5s7.38-4.39 8.07-3.62-2.56 5-4.38 6.52a15.11 15.11 0 006.2-.95c2.47-1.18 10-10.9 11.18-6.81 3.12 10.76-.12 21.1-8.76 21.94-9.31.91-32.41 5.37-32.41 5.37z" transform="translate(0 -23.39)"/><path class="cls-26" d="M1617.69 857.08c-44.19-11.25-92.76-79.8-92.76-79.8l12.44-10.79c12.88 15.19 66.44 41.34 66.44 41.34-.29-13.9.08-26.57 1-38.11 6-78.42 35.51-104.54 43.58-110.28a17.9 17.9 0 012.05-1.31s0 .56.07 1.64c.12 2.33.33 7 .55 13.47 1.59 48 3.55 193.25-33.37 183.84z" transform="translate(0 -23.39)"/><path class="cls-26" d="M1537.37 766.49c-.19-1.85-1.43-28.79-6.79-33.92s-15.92-12.12-18.95-11.55-13.35 17.72-8.48 29.53 21.78 26.73 21.78 26.73z" transform="translate(0 -23.39)"/><path class="cls-27" d="M1548.35 769.62l-29.1 1.22a1.76 1.76 0 01-1.83-1.68l-2.32-55.49a1.75 1.75 0 011.68-1.82l29.1-1.22a1.75 1.75 0 011.82 1.68l2.3 55.49a1.75 1.75 0 01-1.65 1.82z" transform="translate(0 -23.39)"/><path class="cls-28" d="M1540.79 769.94l-26.4 1.1a3.11 3.11 0 01-3.23-3l-2.16-52.76a3.11 3.11 0 013-3.23l26.4-1.1a3.11 3.11 0 013.23 3l2.21 52.79a3.11 3.11 0 01-3.05 3.2z" transform="translate(0 -23.39)"/><path class="cls-26" d="M1509.42 723.08s7.93-8.86 15.87-2.09-.53 21.22-7.41 25.17-9.09 6-9.09 6z" transform="translate(0 -23.39)"/><path class="cls-29" d="M1713.91 1313c-2.7 10.7-5.66 20.89-8.67 30.38-.65 2-1.29 4-1.94 6-.32 1-.65 1.93-1 2.88-.64 1.88-1.26 3.72-1.89 5.52-.81 2.35-1.63 4.64-2.43 6.85-.59 1.64-1.19 3.25-1.77 4.83-9 24-16.47 39.26-16.47 39.26l-17.85-1.23s6.7-31.89 8-77.56c0-1.63.09-3.28.13-4.94.06-3.54.11-7.15.11-10.84v-4.58c-.36-39.34-5.23-85.83-20.77-130.22A849.68 849.68 0 011621 1079c-21.38-98.5-16.35-163.21-16.35-163.21l100.44 11.75 4.68.55c.43 46.13 1.61 108.76 2.65 157.73.18 8.51.35 16.6.51 24.11.7 31.44 1.22 52.94 1.22 52.94 19.31 41.56 12.29 100.26-.24 150.13z" transform="translate(0 -23.39)"/><path class="cls-6" d="M1685.15 570.89s23.76 20.23 2 43.52c0 0 18.16 1.78 24.31-3.24a16.81 16.81 0 01-2.33 3.55s20.3.73 28.67-5.6 3-110.19-53.34-98.57c0 0-47.75-3.61-43.3 51.64s-13.58 55.26-13.58 55.26 5 2.47 7.44 2.47c0 0 3.53-1.35 4.23-3.31 0 0-.7 3.07-1.6 4 0 0 19.46 1.85 29.17-5.5s21.1-32.82 18.33-44.22z" transform="translate(0 -23.39)"/><path class="cls-26" d="M1761.83 904.49c-19-42.57-28.06-54.61-28.38-68-.25-10.59 5-22 15.12-50a103.74 103.74 0 005-20.26c8-54-23.22-112.43-42.63-116.41-5.41-1.42-14.56-20.94-14.45-52.38l-2.43.48-40.89 8.1s.93 12.86 1 25c0 10.11-.52 20.38-2.81 21.59-2.94.27-5.62.8-5.62.8s-34.6 24.3-36.83 57.26c-3 44 28 96.22.52 184.21-28.09 89.8 162.89 33.12 152.4 9.61z" transform="translate(0 -23.39)"/><path class="cls-29" d="M1653.22 606s.93 12.86 1 25c22.88-.64 35-21.51 39.93-33.08z" transform="translate(0 -23.39)"/><path class="cls-6" d="M1698.33 593.42s12-18.95 14.87-35.15c2-11.56-3.84-54.43-46.92-48.26a58.61 58.61 0 00-24.27 9.18c-9.35 6.32-22.85 19.95-7.76 57.36l3.92 12.64z" transform="translate(0 -23.39)"/><path class="cls-26" d="M1645.58 617.44s54.13.9 54.17-32.82 7-56.32-27.51-58.31-41.29 10.86-44 22.11 3.26 67.92 17.34 69.02z" transform="translate(0 -23.39)"/><path class="cls-6" d="M1647.58 525.48s14.82 39.56 37.57 45.41 32.61-.24 32.61-.24-17.44-13.86-21.07-38.06c0 0-37.93-25.94-49.11-7.11z" transform="translate(0 -23.39)"/><path class="cls-6" d="M1651.26 528.69s-11.07 8.83-13.77 17.42-3.91 26.27-9.06 25.66c0 0-11.17-26.88 1.38-42.09 13.3-16.13 21.45-.99 21.45-.99z" transform="translate(0 -23.39)"/><path class="cls-26" d="M1832.24 949.7l-16.24 4.88s-53.61-89-58.48-112.09c-1.59-7.54-5.49-22.62-10-39.51-9.41-35-21.56-77.79-21.56-77.79l-4-17.33-13.64-59.1s26.13 2.67 41.41 9.06c5.06 2.11 8.92 4.63 10.27 7.59 11.23 24.69 22.43 87 30.31 131.44 4.39 24.77 7.74 44 9.49 48.08 4.82 11.36 19.71 73.91 32.44 104.77z" transform="translate(0 -23.39)"/><path class="cls-6" d="M1649.2 530s10.56 41.43 39.26 54.69c0 0-28.7-25.45-31.14-52.79s-8.12-1.9-8.12-1.9z" transform="translate(0 -23.39)"/><path class="cls-26" d="M1771.52 1304.34c-5.77 61.63-31.2 101.5-31.2 101.5l-8.68 7.9s-7.91-45.13-13.62-96.79c-5.44-49.11-12.91-101.07-21.34-116.94-12.62-23.69-21.91-72.16-28.61-123.37-11.06-84.73-15-177-15-177l101.84-5c10.25 17.21 14.71 45.46 15.77 77.57 1.11 33.76-1.54 71.81-5.23 105.8-5.15 47.6-12.32 87.28-14 96.19a5.24 5.24 0 00.67 3.4c20.29 40.13 23.21 86.02 19.4 126.74z" transform="translate(0 -23.39)"/><path class="cls-11" d="M1652.68 763c-2.29 55.94-10.66 111.34-35 107.77-29.85-4.36-37.63-32.22-39.21-52.94a118.55 118.55 0 01.43-23s14.7-.07 17.08-2.26c11.28-10.42 7.93-112.65 13.51-123.27s41.84-17.43 41.84-17.43 3.67 55.81 1.35 111.13z" transform="translate(0 -23.39)"/><path class="cls-18" d="M1652.68 763c-2.29 55.94-10.66 111.34-35 107.77-29.85-4.36-37.63-32.22-39.21-52.94 7.33-.36 20.23-2.15 25.36-10 7.34-11.2 30.24-83.26 30.24-83.26s8.99 16.18 18.61 38.43z" transform="translate(0 -23.39)"/><path class="cls-6" d="M1713.91 1313c-2.7 10.7-5.66 20.89-8.67 30.38-.65 2-1.29 4-1.94 6-.32 1-.65 1.93-1 2.88-.64 1.88-1.26 3.72-1.89 5.52-.81 2.35-1.63 4.64-2.43 6.85-.59 1.64-1.19 3.25-1.77 4.83-9 24-16.47 39.26-16.47 39.26l-17.85-1.23s6.7-31.89 8-77.56c0-1.63.09-3.28.13-4.94.06-3.54.11-7.15.11-10.84v-4.58c-.36-39.34-5.23-85.83-20.77-130.22A849.68 849.68 0 011621 1079c10.62 2.19 20 0 47.08-2.33 2.85-.24 16.49 16.64 30 39 .69 31.44 16.12 47.23 16.12 47.23 19.26 41.53 12.24 100.23-.29 150.1z" transform="translate(0 -23.39)"/><path class="cls-9" d="M1771.52 1304.34c-5.77 61.63-31.2 101.5-31.2 101.5l-8.68 7.9s-7.91-45.13-13.62-96.79c-5.44-49.11-12.91-101.07-21.34-116.94-12.62-23.69-21.91-72.16-28.61-123.37 9.38 3.9 41.28 14 97.4 1.34-5.15 47.6-12.32 87.28-14 96.19a5.24 5.24 0 00.67 3.4c20.27 40.16 23.19 86.05 19.38 126.77zm19.48-299.89s-21.31 6.58-52.69 10.92c-38.87 5.37-93.2 7.31-141.72-10.92 0 0-4-72.2 7.5-109.84S1621 839 1621 839s46.06 11.55 92.84 2.59a150.82 150.82 0 0019.62-5.07s28.86 61.27 36.79 87.52 20.75 80.41 20.75 80.41z" transform="translate(0 -23.39)"/><path class="cls-6" d="M1791 1004.45s-21.31 6.58-52.69 10.92c-57.56-32.64-29.5-170-29.5-170 1.71-1.38 3.38-2.66 5-3.84a150.82 150.82 0 0019.62-5.07s28.86 61.27 36.79 87.52 20.78 80.47 20.78 80.47z" transform="translate(0 -23.39)"/><path class="cls-11" d="M1838.15 867c0 14.06-14.34 22.69-29.72 26.89-14.8 4.05-30.55 4-35.48.7-8.5-5.7-22.35-69.05-26.4-88.34l-1.14-5.54s-11.05 26.37-11.39 28.83c-.16 1.1-.29 2.62-.39 4-.12 1.62-.18 3-.18 3s-60 30.26-112.46 2.47c0 0-21.34-123.33-12.07-144.56 4.6-10.54 28.61-32.31 38.22-41.69 2.15-2.12 1.94-6.29 1.1-10.12a4.43 4.43 0 015.41-5.24c6.18 1.61 17.3 1.33 29.21-2.58a70.56 70.56 0 0017.85-8.72 2.73 2.73 0 014.29 1.9c.9 7.35 3.12 20.78 7.18 20.78 5.59 0 43.71 4.65 46.5 9.36 1 1.65 10.88 24.07 23.4 53.78a.33.33 0 010 .08c23.45 55.71 56.07 137 56.07 155z" transform="translate(0 -23.39)"/><path class="cls-18" d="M1745.41 800.73s-11.05 26.37-11.39 28.83c-.16 1.1-.29 2.62-.39 4a54.52 54.52 0 01-18.38 9.67c-18.7 5.66-26.82-30.17-25.7-48s27.55-68.9 36.35-70 19.51 75.5 19.51 75.5z" transform="translate(0 -23.39)"/><path class="cls-18" d="M1746.55 806.27l-1.14-5.54a28.6 28.6 0 011.14 5.54z" transform="translate(0 -23.39)"/><path d="M1669.91 852.55c-34.13 0-48.19-11.74-49.23-12.54l-2.21-16.07c.33.24 46.11 27.73 117 1.4l-1.5 12.18c-27.28 10.12-46.34 15.03-64.06 15.03z" transform="translate(0 -23.39)" fill="#b64c41"/><path class="cls-18" d="M1838.15 867c0 14.06-14.34 22.69-29.72 26.89 21.2-25.25-25.2-178-26.38-181.93 23.48 55.75 56.1 137.04 56.1 155.04zm-126.02-218.24s-28.55 18.08-50.14 13.8c0 0-5.19-3.27 2-6.57 6.72-3.08 22.34-12.21 18.91-21.22a70.56 70.56 0 0017.85-8.72A2.73 2.73 0 011705 628c.85 7.33 3.07 20.76 7.13 20.76z" transform="translate(0 -23.39)"/><path class="cls-6" d="M1690.06 1423.67h-11.4c-3.81-.6-6.63-1.71-10.55-2.22-5.94-.78-8.68 1.66-9.22 2.22l-.11.11h-48.41c-1.22-1.73 0-5.76 1.1-8.73a6.88 6.88 0 014.53-4.14c5.13-1.49 15.25-2.81 24.52-11.2 5.22-4.71 25.18-17.33 25.18-17.33h.11c.44 0 2.52.65 11.6 8.32 4.7 4 12.7-5.59 12.7-5.59a11.38 11.38 0 012.62 3.55 12 12 0 011 7.44c-.72 4.36 1.61 12.47 3.47 18 1.13 3.32 2.08 5.68 2.08 5.68s.59 2.66-9.22 3.89z" transform="translate(0 -23.39)"/><path class="cls-31" d="M1692.73 1388.64c-2.72 1.92-8.46 5.7-12.27 6.19-5.14.68-14.76-12.45-14.76-12.45h.11c.44 0 2.52.65 11.6 8.32 4.7 4 12.7-5.59 12.7-5.59a11.38 11.38 0 012.62 3.53zm-2.67 35.03h-11.4c-3.81-.6-6.63-1.71-10.55-2.22-5.94-.78-8.68 1.66-9.22 2.22l-.11.11h-48.41c-1.22-1.73 0-5.76 1.1-8.73 1.47-1.31 1.88 5.68 2.69 6.79s39.49.41 41.73-1.22 8.93-4.46 18.28-2.23c8.13 1.94 20.11-3 23.07-4.36 1.13 3.32 2.08 5.68 2.08 5.68s.55 2.73-9.26 3.96z" transform="translate(0 -23.39)"/><path class="cls-6" d="M1750.88 1423.67h-11.4c-3.82-.6-6.64-1.71-10.55-2.22-6-.78-8.68 1.66-9.23 2.22l-.1.11h-48.42c-1.21-1.73 0-5.76 1.1-8.73a6.88 6.88 0 014.53-4.14c5.14-1.49 15.26-2.81 24.53-11.2 5.21-4.71 25.18-17.33 25.18-17.33h.1c.44 0 2.53.65 11.61 8.32 4.69 4 12.7-5.59 12.7-5.59a11.38 11.38 0 012.62 3.55 12.06 12.06 0 011 7.44c-.72 4.36 1.61 12.47 3.47 18 1.13 3.32 2.08 5.68 2.08 5.68s.58 2.66-9.22 3.89z" transform="translate(0 -23.39)"/><path class="cls-31" d="M1753.55 1388.64c-2.72 1.92-8.46 5.7-12.27 6.19-5.15.68-14.76-12.45-14.76-12.45h.1c.44 0 2.53.65 11.61 8.32 4.69 4 12.7-5.59 12.7-5.59a11.38 11.38 0 012.62 3.53zm-2.67 35.03h-11.4c-3.82-.6-6.64-1.71-10.55-2.22-6-.78-8.68 1.66-9.23 2.22l-.1.11h-48.42c-1.21-1.73 0-5.76 1.1-8.73 1.47-1.31 1.89 5.68 2.7 6.79s39.49.41 41.72-1.22 8.94-4.46 18.28-2.23c8.13 1.94 20.11-3 23.08-4.36 1.13 3.32 2.08 5.68 2.08 5.68s.54 2.73-9.26 3.96z" transform="translate(0 -23.39)"/><path class="cls-32" d="M1872.5 1019a16.5 16.5 0 00-10.51-12.27c-8.78-3.26-23.14-6.19-40.8-1-29.81 8.77-32.73 27.09-30.76 40.27s-3.87 34.18-3 49.13 5.14 52.49 27.21 50.52 93.23-21.09 93.23-21.09 12.29-23.4-13-57.28c-14.95-20.14-20.4-38.46-22.37-48.28z" transform="translate(0 -23.39)"/><path class="cls-32" d="M1858.84 1001.68l-5.9.54a13.35 13.35 0 00-3.39-6.65c-2.09-2-5-2.68-8.56-2.1-3.4.55-5.85 2.11-7.09 4.62-1.74 3.53-.78 8.09-.76 8.13l-5.76 1.34c-.07-.32-1.74-7.71 1.28-13.93 2.07-4.29 5.78-6.77 10.91-7.73 5.29-.85 9.76.44 13.29 3.84 4.88 4.68 5.94 11.65 5.98 11.94z" transform="translate(0 -23.39)"/><path class="cls-27" d="M1922.48 1121.18s-71.16 19.17-93.25 21.1-26.37-35.54-27.18-50.54 5-35.92 3-49.13a37.07 37.07 0 01-.45-8c.57-11.76 7.16-25.12 31.16-32.16a64.14 64.14 0 0140.85 1 16.55 16.55 0 0110.52 12.24c.26 1.15.49 2.55.81 3.93 2.53 10.49 8.39 26.77 21.58 44.37 25.27 33.81 12.96 57.19 12.96 57.19z" transform="translate(0 -23.39)"/><path class="cls-33" d="M1812.8 1094.9l42.88-9.71s10 30.72-10.28 36.31-28.68-6.29-32.6-26.6z" transform="translate(0 -23.39)"/><path class="cls-32" d="M1812.8 1094.9s9.89 9.53 23.26 6.17 19.62-15.88 19.62-15.88z" transform="translate(0 -23.39)"/><path class="cls-33" d="M1864.39 1083.22l42.89-9.7s10 30.71-10.29 36.31-28.68-6.3-32.6-26.61z" transform="translate(0 -23.39)"/><path class="cls-32" d="M1864.39 1083.22s9.9 9.54 23.27 6.18 19.62-15.88 19.62-15.88z" transform="translate(0 -23.39)"/><path class="cls-33" d="M1887.14 1015.65c.26 1.15.49 2.55.81 3.93-5.67 11.7-16.42 26.65-34.61 30.12-30.94 6-48.73-15.14-48.73-15.14.57-11.76 7.16-25.12 31.16-32.16a64.14 64.14 0 0140.85 1 16.55 16.55 0 0110.52 12.25z" transform="translate(0 -23.39)"/><path class="cls-28" d="M1853.78 1056.18a3.62 3.62 0 01-4.32-2.72l-.73-3.21a3.62 3.62 0 012.73-4.31 3.62 3.62 0 014.32 2.72l.72 3.2a3.62 3.62 0 01-2.72 4.32z" transform="translate(0 -23.39)"/><path class="cls-26" d="M1831.08 947s4.94 11.64 10.09 14.89 10 11.05 11.1 17.33c2 11.53-6.88 18.68-13.38 18.68s-12.7-8.86-16.53-30c-.21-1.16-6.37-13.3-6.37-13.3z" transform="translate(0 -23.39)"/><path class="cls-6" d="M981.45 510.34c-7.76-11.79-38.59-5.2-68.85 14.73s-48.5 45.65-40.74 57.44 38.59 5.19 68.86-14.74 48.5-45.64 40.73-57.43z" transform="translate(0 -23.39)"/><path class="cls-4" d="M823.36 948.4l6 .36c-.05-.14 2.32-104.35 11.46-146.51 17-78.55 61.55-140 62-140.57l-10.7-3.43c-.53.57-9 13.65-20.92 37.77-11 22.23-28.73 59.27-36.55 102.4-7.71 42.58-11.52 149.42-11.29 149.98z" transform="translate(0 -23.39)"/><path class="cls-23" d="M931.33 509.41s-39.05-8.33-57.79 23.43-19.79 87-32.29 105-34.54 94.24-11.11 111.28 167.78-.62 175.88-8.39-.48-87.79-14.59-111 20.27-132.12-60.1-120.32z" transform="translate(0 -23.39)"/><path class="cls-3" d="M989.51 857.08c44.19-11.25 92.76-79.8 92.76-79.8l-12.44-10.79c-12.88 15.19-66.44 41.34-66.44 41.34.29-13.9-.08-26.57-1-38.11-5.94-78.42-35.5-104.54-43.57-110.28a17.9 17.9 0 00-2.05-1.31s0 .56-.07 1.64c-.12 2.33-.34 7-.56 13.47-1.6 48-3.55 193.25 33.37 183.84z" transform="translate(0 -23.39)"/><path class="cls-3" d="M1069.83 766.49c.19-1.85 1.43-28.79 6.78-33.92s15.92-12.12 19-11.55 13.35 17.72 8.48 29.53-21.78 26.73-21.78 26.73zM893.29 1313c2.69 10.7 5.66 20.89 8.67 30.38q1 3 1.93 6l1 2.88q.95 2.82 1.88 5.52c.82 2.35 1.63 4.64 2.44 6.85q.89 2.46 1.76 4.83c9 24 16.47 39.26 16.47 39.26l17.86-1.23s-6.71-31.89-8-77.56c0-1.63-.09-3.28-.12-4.94q-.11-5.31-.11-10.84v-4.58c.36-39.34 5.23-85.83 20.77-130.22A847.6 847.6 0 00986.2 1079c21.39-98.5 16.36-163.21 16.36-163.21l-100.44 11.72-4.68.55c-.43 46.13-1.61 108.76-2.65 157.73-.18 8.51-.35 16.6-.51 24.11-.7 31.44-1.22 52.94-1.22 52.94-19.32 41.59-12.3 100.29.23 150.16z" transform="translate(0 -23.39)"/><path class="cls-3" d="M845.36 904.49c19-42.57 28.07-54.61 28.38-68 .26-10.59-5-22-15.11-50a103.74 103.74 0 01-5-20.26c-8-54 23.21-112.43 42.63-116.41 5.4-1.42 14.56-20.94 14.45-52.38l2.43.48L954 606s-.93 12.86-1 25c0 10.11.52 20.38 2.8 21.59 2.95.27 35 6 40.88 15.21 5.74 9.06-.65 9.89 1.58 42.85 3 44-28 96.22-.53 184.21 28.13 89.82-162.85 33.14-152.37 9.63z" transform="translate(0 -23.39)"/><path class="cls-22" d="M954 606s-.93 12.86-1 25c-22.88-.64-35-21.51-39.93-33.08z" transform="translate(0 -23.39)"/><path class="cls-3" d="M961.62 617.44s-54.13.9-54.17-32.82-7.05-56.32 27.55-58.31 41.29 10.86 44 22.11-3.3 67.92-17.38 69.02z" transform="translate(0 -23.39)"/><path class="cls-23" d="M959.61 525.48s-14.82 39.52-37.56 45.41-32.61-.24-32.61-.24 17.44-13.86 21.06-38.06c0 0 37.93-25.94 49.11-7.11z" transform="translate(0 -23.39)"/><path class="cls-23" d="M955.94 528.69s11.07 8.83 13.77 17.42 3.91 26.27 9.06 25.66c0 0 11.17-26.88-1.38-42.09-13.31-16.13-21.45-.99-21.45-.99z" transform="translate(0 -23.39)"/><path class="cls-3" d="M775 949.7l16.25 4.88s53.61-89 58.49-112.09c1.59-7.54 5.48-22.62 10-39.51 9.42-35 21.57-77.79 21.57-77.79l4-17.33 13.65-59.1s-26.13 2.67-41.41 9.06c-5.06 2.11-8.92 4.63-10.27 7.59-11.23 24.69-22.44 87-30.32 131.44-4.39 24.77-7.74 44-9.49 48.08-4.89 11.36-19.78 73.91-32.47 104.77z" transform="translate(0 -23.39)"/><path class="cls-23" d="M958 530s-10.56 41.43-39.26 54.69c0 0 28.7-25.45 31.13-52.79S958 530 958 530z" transform="translate(0 -23.39)"/><path class="cls-3" d="M835.67 1304.34c5.78 61.63 31.21 101.5 31.21 101.5l8.68 7.9s7.91-45.13 13.62-96.79c5.44-49.11 12.9-101.07 21.34-116.94 12.61-23.69 21.91-72.16 28.6-123.37 11.06-84.73 15-177 15-177l-101.84-5c-10.25 17.21-14.71 45.46-15.77 77.57-1.12 33.76 1.54 71.81 5.23 105.8 5.15 47.6 12.32 87.28 14 96.19a5.3 5.3 0 01-.67 3.4c-20.28 40.13-23.21 86.02-19.4 126.74z" transform="translate(0 -23.39)"/><path class="cls-34" d="M1028.75 817.81c-1.59 20.71-9.37 48.58-39.21 52.93-10.56 1.54-18.11-8-23.48-23.85-7-20.72-10.25-52.23-11.54-83.92-1.24-30-.73-60.21 0-81.52 12.24-1.39 34.72-11.76 41.61-14.34a8.43 8.43 0 01.57.64c.15.17.28.35.41.52a8.3 8.3 0 01.61 1c3 5.66 3.42 37.39 4.9 67.34 1.28 26.21 3.36 51.06 8.62 55.93 2.39 2.19 17.07 2.26 17.07 2.26a118.16 118.16 0 01.44 23.01z" transform="translate(0 -23.39)"/><path class="cls-35" d="M954.52 763c2.29 55.94 10.66 111.34 35 107.77 29.86-4.36 37.63-32.22 39.22-52.94-7.33-.36-20.23-2.15-25.36-10-7.34-11.2-30.25-83.26-30.25-83.26s-8.99 16.18-18.61 38.43z" transform="translate(0 -23.39)"/><path class="cls-9" d="M986.2 839s-59.9 15-112.46-2.48c0 0-28.85 61.27-36.79 87.52s-67.9 362.29-67.9 362.29 132 38.17 219.68 5.21c0 0 25.84-359.25 14.35-396.89S986.2 839 986.2 839z" transform="translate(0 -23.39)"/><path class="cls-34" d="M1002.62 736.37c-4.39 43.31-16.42 102-16.42 102a97.35 97.35 0 01-20.14 7.91C919.51 859 873.75 836 873.75 836s-.07-1.34-.18-3c-.1-1.34-.23-2.84-.39-4-.34-2.45-11.39-28.74-11.39-28.74s-.42 2.05-1.15 5.54c-4 19.22-17.9 82.38-26.4 88.06-4.92 3.29-20.68 3.34-35.46-.69-15.4-4.18-29.73-12.8-29.73-26.81 0-17.93 32.61-99 56.1-154.58a.33.33 0 010-.08c12.51-29.62 19.78-50.23 29.34-52.53 0 0 64.36 26.19 100 22.17 12.24-1.38 34.72-11.72 41.61-14.3a8.55 8.55 0 01.57.65 5.21 5.21 0 01.41.52 6.12 6.12 0 01.37.57c5.23 7.69 4.4 20.46 4.67 25.33.55 9.56 2.45 22.89.5 42.26z" transform="translate(0 -23.39)"/><path class="cls-35" d="M861.78 800.73s11.05 26.37 11.4 28.83c.16 1.1.29 2.62.39 4a54.43 54.43 0 0018.43 9.63c18.69 5.66 26.82-30.17 25.7-48s-27.55-68.9-36.36-70-19.56 75.54-19.56 75.54z" transform="translate(0 -23.39)"/><path class="cls-18" d="M860.64 806.27c.73-3.49 1.14-5.54 1.14-5.54a28.6 28.6 0 00-1.14 5.54z" transform="translate(0 -23.39)"/><path class="cls-20" d="M937.82 850.38c34.12 0 47.66-9.57 48.7-10.37l2.21-16.07c-.33.24-46.12 27.73-117 1.4l1.5 12.18c27.28 10.12 46.87 12.86 64.59 12.86z" transform="translate(0 -23.39)"/><path class="cls-35" d="M769.05 867c0 14.06 14.33 22.69 29.72 26.89C777.56 868.66 824 715.88 825.15 712c-23.49 55.71-56.1 137-56.1 155z" transform="translate(0 -23.39)"/><path class="cls-6" d="M917.14 1423.67h11.39c3.82-.6 6.64-1.71 10.55-2.22 5.95-.78 8.69 1.66 9.23 2.22l.11.11h48.41c1.22-1.73 0-5.76-1.1-8.73a6.88 6.88 0 00-4.53-4.14c-5.13-1.49-15.25-2.81-24.52-11.2-5.22-4.71-25.18-17.33-25.18-17.33h-.11c-.44 0-2.53.65-11.61 8.32-4.69 4-12.69-5.59-12.69-5.59a11.31 11.31 0 00-2.63 3.55 12.06 12.06 0 00-1 7.44c.73 4.36-1.6 12.47-3.46 18-1.13 3.32-2.08 5.68-2.08 5.68s-.59 2.66 9.22 3.89z" transform="translate(0 -23.39)"/><path class="cls-31" d="M914.46 1388.64c2.72 1.92 8.47 5.7 12.28 6.19 5.14.68 14.76-12.45 14.76-12.45h-.11c-.44 0-2.53.65-11.61 8.32-4.69 4-12.69-5.59-12.69-5.59a11.31 11.31 0 00-2.63 3.53zm2.68 35.03h11.39c3.82-.6 6.64-1.71 10.55-2.22 5.95-.78 8.69 1.66 9.23 2.22l.11.11h48.41c1.22-1.73 0-5.76-1.1-8.73-1.47-1.31-1.88 5.68-2.7 6.79s-39.49.41-41.72-1.22-8.94-4.46-18.28-2.23c-8.13 1.94-20.11-3-23.07-4.36-1.13 3.32-2.08 5.68-2.08 5.68s-.55 2.73 9.26 3.96z" transform="translate(0 -23.39)"/><path class="cls-6" d="M856.32 1423.67h11.4c3.81-.6 6.63-1.71 10.55-2.22 5.94-.78 8.68 1.66 9.23 2.22l.1.11H936c1.22-1.73 0-5.76-1.09-8.73a6.92 6.92 0 00-4.54-4.14c-5.13-1.49-15.25-2.81-24.52-11.2-5.21-4.71-25.18-17.33-25.18-17.33h-.1c-.44 0-2.53.65-11.61 8.32-4.7 4-12.7-5.59-12.7-5.59a11.38 11.38 0 00-2.62 3.55 12.06 12.06 0 00-1 7.44c.72 4.36-1.61 12.47-3.47 18-1.13 3.32-2.08 5.68-2.08 5.68s-.57 2.66 9.23 3.89z" transform="translate(0 -23.39)"/><path class="cls-31" d="M853.65 1388.64c2.72 1.92 8.46 5.7 12.27 6.19 5.14.68 14.76-12.45 14.76-12.45h-.1c-.44 0-2.53.65-11.61 8.32-4.7 4-12.7-5.59-12.7-5.59a11.38 11.38 0 00-2.62 3.53zm2.67 35.03h11.4c3.81-.6 6.63-1.71 10.55-2.22 5.94-.78 8.68 1.66 9.23 2.22l.1.11H936c1.22-1.73 0-5.76-1.09-8.73-1.47-1.31-1.89 5.68-2.7 6.79s-39.49.41-41.73-1.22-8.93-4.46-18.27-2.23c-8.13 1.94-20.12-3-23.08-4.36-1.13 3.32-2.08 5.68-2.08 5.68s-.53 2.73 9.27 3.96z" transform="translate(0 -23.39)"/><path class="cls-3" d="M776.11 947s-4.94 11.64-10.08 14.89-10 11.05-11.1 17.33c-2 11.53 6.87 18.68 13.37 18.68s12.71-8.86 16.53-30c.21-1.16 6.38-13.3 6.38-13.3z" transform="translate(0 -23.39)"/><path class="cls-11" d="M1094.41 683.02l-.76 7.81-2.4 24.6-1.53 15.75h-31.41l-1.93-15.75-3.01-24.6-.96-7.81h42z"/><path d="M1096.64 683.02h-46.71l.92-4.69h44.64l1.15 4.69zm-2.99 7.81l-2.4 24.6h-34.87l-3.01-24.6h40.28z" fill="#d17a33"/><path class="cls-3" d="M1097.78 723.08s-7.94-8.86-15.87-2.09.53 21.22 7.41 25.17 9.09 6 9.09 6z" transform="translate(0 -23.39)"/><path class="cls-4" d="M917.75 948.88l-6-.45c.07-.13 11.68-104.4 8.27-147.7-6.35-80.66-42.22-148-42.63-148.6l11.05-2c.45.63 7.07 14.82 15.68 40.5 7.94 23.66 20.53 63 22.5 107.08 1.97 43.56-8.62 150.64-8.87 151.17z" transform="translate(0 -23.39)"/><path d="M845.42 925.94s5.8-14.27 15-17.83l47.1 8.89s-11.63 11-12.72 18.25z" transform="translate(0 -23.39)" fill="#d2e4ff"/><path class="cls-25" d="M904.53 1006.49l-80.46-15.16a7 7 0 01-5.56-8.14l10-53.34a7 7 0 018.14-5.55l80.46 15.16a7 7 0 015.55 8.14l-10.05 53.34a7 7 0 01-8.08 5.55z" transform="translate(0 -23.39)"/><path class="cls-18" transform="rotate(.5 3539.177 912.76)" d="M836.87 896.49h38.48v49.32h-38.48z"/><path class="cls-11" transform="rotate(.5 3535.73 910.484)" d="M834.67 896.47h38.48v49.32h-38.48z"/><path class="cls-17" transform="rotate(37.43 901.044 922.359)" d="M847.26 909.34h38.48v49.32h-38.48z"/><path class="cls-16" transform="rotate(37.43 897.61 919.705)" d="M843.85 906.73h38.48v49.32h-38.48z"/><path class="cls-4" d="M884.87 1002.79l-77-14.52a8.71 8.71 0 01-6.94-10.17l9.4-49.92a8.71 8.71 0 0110.17-6.94l77 14.52a8.71 8.71 0 017 10.17l-9.5 49.91a8.71 8.71 0 01-10.13 6.95z" transform="translate(0 -23.39)"/><path class="cls-6" d="M866.66 553.24s-24.63-49 9.78-68.4 59.61-11.77 78.54 11.93z" transform="translate(0 -23.39)"/><path class="cls-9" d="M1005.3 491.38c-7.08-11.35-31.86-9.52-61.77 2.73a246.12 246.12 0 00-36.65 18.95 236.25 236.25 0 00-39.71 30.7c-19.8 19.36-29.47 37.9-23 48.19 2 3.14 4.9 5.17 9.32 6.34 4.38-9.44 17-18.29 20.53-25.65 5-10.4 17.78-29.25 41.1-43.8 17.91-11.17 35.73-17.74 48-18.54 7.13-.45 12.39 1 14.7 4.74 1.8 2.9 1.61 6.81-.25 11.34a55.48 55.48 0 015.3 12.62c19.39-19.18 28.79-37.44 22.43-47.62z" transform="translate(0 -23.39)"/><path class="cls-38" d="M1816 149.54c-79.24 0-143.71 64.46-143.71 143.7S1736.75 437 1816 437s143.7-64.47 143.7-143.71-64.47-143.75-143.7-143.75zm0 278c-74.07 0-134.34-60.26-134.34-134.34s60.26-134.29 134.34-134.29 134.33 60.26 134.33 134.33-60.27 134.34-134.33 134.34z" transform="translate(0 -23.39)"/><path class="cls-38" d="M1816 184.3a5.73 5.73 0 10-5.73-5.73 5.73 5.73 0 005.73 5.73zm0 219.7a5.73 5.73 0 105.73 5.72A5.72 5.72 0 001816 404zm109.85-115.56a5.73 5.73 0 105.73 5.73 5.73 5.73 0 00-5.73-5.73zm-56.4 96.69a5.73 5.73 0 108.09-.19 5.72 5.72 0 00-8.09.19zm37.49-35.63a5.73 5.73 0 108.09-.19 5.72 5.72 0 00-8.09.19zm6.63-104.84a5.73 5.73 0 10-7.65-2.68 5.74 5.74 0 007.65 2.68zm-36.87-48.89a5.73 5.73 0 101.7 7.91 5.72 5.72 0 00-1.7-7.91zm-162.28 90.75a5.73 5.73 0 105.73 5.73 5.73 5.73 0 00-5.73-5.73zm48.31 96.48a5.73 5.73 0 108.1.2 5.73 5.73 0 00-8.1-.2zm-37.49-35.61a5.73 5.73 0 108.1.19 5.73 5.73 0 00-8.1-.19zm1.47-104.65a5.73 5.73 0 10-2.68-7.65 5.74 5.74 0 002.68 7.65zm36.87-48.89a5.73 5.73 0 107.92 1.7 5.73 5.73 0 00-7.92-1.7zM1870 251.23l-46.82 32.35a5.21 5.21 0 00-.52-.28l-5-88.45v88.45a5.73 5.73 0 108.25 5.14 6 6 0 00-.07-.85z" transform="translate(0 -23.39)"/></svg>