<?xml version="1.0" ?><!DOCTYPE svg  PUBLIC '-//W3C//DTD SVG 1.1//EN'  'http://www.w3.org/Graphics/SVG/1.1/DTD/svg11.dtd'><svg enable-background="new 0 0 72 72" id="Layer_1" version="1.1" viewBox="0 0 72 72" xml:space="preserve" xmlns="http://www.w3.org/2000/svg" xmlns:xlink="http://www.w3.org/1999/xlink"><g><polygon fill="#D5D5D5" points="72.4,64.4 57.9,7 57.9,7 57.6,5.9 44.1,9.4 44.1,8.9 44.1,7.8 26.7,7.8 21,7.8 3.6,7.8 3.6,8.9    3.6,67.1 3.6,68.2 21,68.2 26.7,68.2 44.1,68.2 44.1,67.1 44.1,46.9 49.7,69 49.7,69 50,70.1  "/><polygon fill="#FFFFFF" points="68.4,60.4 53.9,3 53.9,3 53.6,1.9 40.1,5.4 40.1,4.9 40.1,3.8 22.7,3.8 17,3.8 -0.4,3.8 -0.4,4.9    -0.4,63.1 -0.4,64.2 17,64.2 22.7,64.2 40.1,64.2 40.1,63.1 40.1,42.9 45.7,65 45.7,65 46,66.1  "/><rect fill="#2D93BA" height="51.2" width="15.1" x="3.6" y="8.9"/><rect fill="#27A2DB" height="51.2" width="15.1" x="3.6" y="7.8"/><rect fill="#FFFFFF" height="15.7" width="9.8" x="6.3" y="12.3"/><g><rect fill="#EBF0F3" height="1" width="6.7" x="7.8" y="14.1"/><rect fill="#EBF0F3" height="1" width="6.7" x="7.8" y="16.9"/><rect fill="#EBF0F3" height="1" width="6.7" x="7.8" y="19.6"/><rect fill="#EBF0F3" height="1" width="6.7" x="7.8" y="22.3"/><rect fill="#EBF0F3" height="1" width="6.7" x="7.8" y="25.1"/></g><g><circle cx="11.1" cy="51.7" fill="#EBF0F3" r="3.6"/><circle cx="11.1" cy="51.7" fill="#64798A" r="3"/></g><rect fill="#D15241" height="51.2" width="15.1" x="21" y="8.9"/><rect fill="#E56353" height="51.2" width="15.1" x="21" y="7.8"/><rect fill="#FFFFFF" height="15.7" width="9.8" x="23.7" y="12.3"/><g><rect fill="#EBF0F3" height="1" width="6.7" x="25.2" y="14.1"/><rect fill="#EBF0F3" height="1" width="6.7" x="25.2" y="16.9"/><rect fill="#EBF0F3" height="1" width="6.7" x="25.2" y="19.6"/><rect fill="#EBF0F3" height="1" width="6.7" x="25.2" y="22.3"/><rect fill="#EBF0F3" height="1" width="6.7" x="25.2" y="25.1"/></g><g><circle cx="28.5" cy="51.7" fill="#EBF0F3" r="3.6"/><circle cx="28.5" cy="51.7" fill="#64798A" r="3"/></g><rect fill="#3EA69B" height="51.2" transform="matrix(0.9693 -0.2458 0.2458 0.9693 -6.9529 13.3334)" width="15.1" x="42.4" y="8.9"/><rect fill="#44C4A1" height="51.2" transform="matrix(0.9693 -0.2458 0.2458 0.9693 -6.7068 13.2375)" width="15.1" x="42.1" y="7.9"/><rect fill="#FFFFFF" height="15.7" transform="matrix(0.9693 -0.2458 0.2458 0.9693 -3.6281 12.0338)" width="9.8" x="41.5" y="12.7"/><g><rect fill="#EBF0F3" height="1" transform="matrix(0.9693 -0.2458 0.2458 0.9693 -2.3605 11.5388)" width="6.7" x="41.7" y="14.7"/><rect fill="#EBF0F3" height="1" transform="matrix(0.9693 -0.2458 0.2458 0.9693 -2.9943 11.7863)" width="6.7" x="42.4" y="17.4"/><rect fill="#EBF0F3" height="1" transform="matrix(0.9693 -0.2458 0.2458 0.9693 -3.628 12.0336)" width="6.7" x="43" y="20"/><rect fill="#EBF0F3" height="1" transform="matrix(0.9693 -0.2458 0.2458 0.9693 -4.2618 12.2813)" width="6.7" x="43.7" y="22.7"/><rect fill="#EBF0F3" height="1" transform="matrix(0.9693 -0.2458 0.2458 0.9693 -4.8956 12.529)" width="6.7" x="44.4" y="25.4"/></g><ellipse cx="54.1" cy="51.1" fill="#EBF0F3" rx="3.6" ry="3.6" transform="matrix(0.9693 -0.2458 0.2458 0.9693 -10.9044 14.8781)"/><ellipse cx="54.1" cy="51.1" fill="#64798A" rx="3" ry="3" transform="matrix(0.9693 -0.2458 0.2458 0.9693 -10.9039 14.8772)"/></g></svg>